:SAMPLES-PER-SECOND 30
:FULLY-SPECIFIED
:DEGREES
306
root  -47.7312 40.2042 6.34409 175.595 8.45132 172.299
RightUpLeg  -20.2262 -21.2638 4.84037
RightLeg  16.1069 -8.90661 -0.829987
RightFoot  -1.81921 -0.0157082 0.0344956
RightToes  -4.65663e-010 0 -3.6325e-017
Spine  8.34127 -1.64384 -6.08084
Spine1  4.30424 -2.41924 1.09608
HEad  -1.98267 -5.9569 0.538538
LeftShoulder1  6.77198 -10.6417 -41.5204
LeftArm  -9.09156 1.58702 -3.65923
LeftForeArm  17.5768 -18.292 -4.3289
LeftHand  -0.244104 0.0205437 5.32207
RightShoulder  5.40641 8.93899 37.4283
RightArm  8.74421 -14.918 28.3046
RightForeArm  3.11596 17.0833 6.38394
RightHand  -0.612806 -0.148128 -13.5862
LeftUpLeg  12.1338 5.98591 -1.99659
LeftLeg  6.01659 25.1268 -3.78386
LeftFoot  -10.6343 0.102938 -6.3225
LeftToes  -7.27628e-011 -1.6005e-012 -1.37987e-011
307
root  -47.9015 39.9568 5.02694 175.624 9.85056 171.491
RightUpLeg  -16.5939 -10.0088 0.549774
RightLeg  1.89015 -27.2719 6.9161
RightFoot  -2.18766 -0.0336179 0.254892
RightToes  -4.65663e-010 0 -3.6325e-017
Spine  7.27835 -1.92395 -7.48786
Spine1  4.70565 -2.9291 2.25478
HEad  -2.48887 -6.3176 0.882725
LeftShoulder1  6.6114 -10.4313 -41.1172
LeftArm  -10.8318 0.565081 -3.44949
LeftForeArm  17.2536 -20.3479 -3.99791
LeftHand  -0.244104 0.0205437 5.32207
RightShoulder  5.30696 8.76133 37.2521
RightArm  2.99527 -15.7797 28.3286
RightForeArm  5.89713 14.6991 6.77101
RightHand  -0.742841 0.606303 -14.4577
LeftUpLeg  14.4338 5.60576 -3.57624
LeftLeg  5.17541 26.7531 -4.08547
LeftFoot  -11.8485 0.0336033 -7.56264
LeftToes  -7.27628e-011 -1.6005e-012 -1.37987e-011
308
root  -47.9931 39.5563 3.58844 175.301 10.9889 170.325
RightUpLeg  -15.3475 -4.66106 -0.810809
RightLeg  -7.46206 -34.1549 11.4839
RightFoot  -4.00495 -0.131106 1.64042
RightToes  -4.65663e-010 0 -3.6325e-017
Spine  6.36297 -2.20969 -8.99016
Spine1  4.65607 -3.29625 2.98589
HEad  -2.56901 -6.99375 0.887225
LeftShoulder1  6.57999 -10.3658 -41.1139
LeftArm  -12.6357 -0.0342269 -3.50194
LeftForeArm  17.552 -22.4745 -3.98673
LeftHand  -0.244104 0.0205437 5.32207
RightShoulder  5.28537 8.65871 37.433
RightArm  -3.21279 -16.7536 28.3539
RightForeArm  8.4021 11.5797 6.84631
RightHand  -0.833674 1.05647 -15.101
LeftUpLeg  16.261 5.79817 -4.96964
LeftLeg  6.75881 27.1247 -3.82523
LeftFoot  -13.7877 -0.121721 -9.60566
LeftToes  -7.27628e-011 -1.6005e-012 -1.37987e-011
309
root  -48.056 39.2552 2.09981 174.94 12.0033 169.9
RightUpLeg  -15.1618 -4.42478 -0.493143
RightLeg  -8.01084 -32.5951 10.9955
RightFoot  -4.96742 -0.160793 2.26379
RightToes  -4.65663e-010 0 -3.6325e-017
Spine  5.53987 -2.60153 -8.5804
Spine1  5.05058 -3.65164 2.90595
HEad  -2.71533 -7.76587 0.472827
LeftShoulder1  6.65214 -10.4308 -41.3915
LeftArm  -14.3772 -0.0560088 -4.02256
LeftForeArm  18.6205 -24.899 -4.33672
LeftHand  -0.244104 0.0205437 5.32207
RightShoulder  5.2796 8.5758 37.6745
RightArm  -8.02155 -17.5128 28.6987
RightForeArm  9.02251 7.92115 6.36634
RightHand  -1.00987 1.90389 -16.1575
LeftUpLeg  18.3232 6.09721 -5.38548
LeftLeg  8.33199 26.959 -3.71501
LeftFoot  -14.469 -0.216751 -11.1108
LeftToes  -7.27628e-011 -1.6005e-012 -1.37987e-011
310
root  -48.0789 39.1255 0.535486 174.912 12.6049 170.763
RightUpLeg  -15.0719 -4.89795 0.385229
RightLeg  -4.47089 -30.3612 9.83728
RightFoot  -3.8482 0.119326 -2.0911
RightToes  -4.65663e-010 0 -3.6325e-017
Spine  4.35579 -3.24903 -5.96889
Spine1  6.13472 -4.25972 2.55697
HEad  -2.92169 -8.40799 -0.359955
LeftShoulder1  6.79313 -10.5209 -42.0434
LeftArm  -15.5339 0.754766 -5.3202
LeftForeArm  20.02 -27.5942 -4.86662
LeftHand  -0.244104 0.0205437 5.32207
RightShoulder  5.29014 8.5501 37.8486
RightArm  -10.3389 -18.3656 29.0741
RightForeArm  8.16535 4.65795 5.54146
RightHand  -1.33008 3.36744 -17.7455
LeftUpLeg  20.7513 8.15324 -3.30774
LeftLeg  9.5724 24.0469 -3.87526
LeftFoot  -14.0999 -0.242118 -13.3739
LeftToes  -7.27628e-011 -1.6005e-012 -1.37987e-011
311
root  -47.9844 39.0394 -1.1251 175.143 13.0768 172.442
RightUpLeg  -16.3325 -5.58049 2.44053
RightLeg  2.66819 -29.4133 6.9255
RightFoot  -2.7647 0.763242 -10.4102
RightToes  -4.65663e-010 0 -3.6325e-017
Spine  2.87253 -3.81928 -2.59071
Spine1  7.03845 -4.82794 2.65038
HEad  -2.5912 -9.14537 -1.45193
LeftShoulder1  6.94237 -10.5017 -43.0927
LeftArm  -15.514 2.19598 -7.44889
LeftForeArm  22.1003 -29.94 -5.2909
LeftHand  -0.244104 0.0205437 5.32207
RightShoulder  5.34292 8.57943 38.1664
RightArm  -11.3491 -19.9066 28.8768
RightForeArm  8.73966 2.86371 4.96906
RightHand  -1.63055 4.70353 -18.8879
LeftUpLeg  23.5132 18.3791 4.06335
LeftLeg  13.0217 11.3848 -2.8611
LeftFoot  -13.1282 -0.197734 -18.181
LeftToes  -7.27628e-011 -1.6005e-012 -1.37987e-011
